<svg xmlns="http://www.w3.org/2000/svg" width="512" height="512" viewBox="0 0 135.467 135.467" version="1.1" id="svg8"><defs id="defs2"><style type="text/css" id="style841"/></defs><g id="layer1"><g id="g1543" transform="translate(-68.447 -70.129) scale(2.90458)"><g id="g1450"><g id="g1042" transform="translate(-30.166 -6.132)" stroke-linecap="round"><path id="rect876" transform="rotate(-45)" d="M6.735 89.803h5.613v5.612H6.735z" opacity="1" fill="#bfbfbf" fill-opacity=".698" stroke-width=".226"/><path id="rect890" d="M71.305 51.433h27.608v.397H71.305z" opacity="1" fill="#ccc" fill-opacity=".984" stroke-width=".187"/><path id="rect892" d="M80.173 42.924h.397V76.19h-.397z" opacity="1" fill="#cbcbcb" fill-opacity=".969" stroke-width=".209"/><path id="rect884" d="M70.776 49.295h2.91V60.06h-2.91z" fill="#8faacb" fill-opacity=".698" stroke-width=".213"/><path id="rect882" d="M71.305 44.456h1.852v7.476h-1.852z" fill="#394a60" fill-opacity=".698" stroke-width=".225"/><path id="rect888" d="M70.776 37.174h2.91v9.525h-2.91z" fill="#52c1e5" fill-opacity=".698" stroke-width=".214"/><path id="rect878" d="M79.375 57.018h7.54v3.44h-7.54z" fill="#577dba" fill-opacity=".698" stroke-width=".223"/><path id="rect880" d="M71.014 57.666h11.54v2.143h-11.54z" fill="#aabfdd" fill-opacity=".698" stroke-width=".19"/></g><path id="path1044" d="M46.19 61.514a17.341 17.341 0 01-12.225-2.926" opacity="1" fill="none" fill-opacity=".969" stroke="#666" stroke-width="2.695" stroke-linecap="square" stroke-miterlimit="4" stroke-dasharray="none" stroke-opacity=".6"/><path id="path1050" d="M27.568 49.724a17.111 17.178 0 011.227-13.687 17.111 17.178 0 0110.83-8.404" opacity="1" fill="none" fill-opacity=".969" stroke="#b3b3b3" stroke-width="3.14" stroke-linecap="square" stroke-miterlimit="4" stroke-dasharray="none" stroke-opacity=".698"/><path id="path1052" d="M40.538 61.258a17.17 17.17 0 01-12.996-11.964 17.17 17.17 0 014.437-17.098 17.17 17.17 0 0117.174-4.134" opacity="1" fill="none" fill-opacity=".969" stroke="#101010" stroke-width="1.274" stroke-linecap="square" stroke-miterlimit="4" stroke-dasharray="none" stroke-opacity="1"/><path id="path1052-3" d="M27.754 43.278a16.296 16.296 0 014.177-9.78" fill="none" fill-opacity=".969" stroke="#101010" stroke-width=".5" stroke-linecap="square" stroke-miterlimit="4" stroke-dasharray="none" stroke-opacity="1"/><path id="path1052-6" d="M31.742 34.331a15.8 15.8 0 012.536-2.516" fill="none" fill-opacity=".969" stroke="#101010" stroke-width=".5" stroke-linecap="square" stroke-miterlimit="4" stroke-dasharray="none" stroke-opacity="1"/><path id="path1052-6-7" d="M37.474 29.766a15.8 15.8 0 012.52-.923" fill="none" fill-opacity=".969" stroke="#101010" stroke-width="1" stroke-linecap="square" stroke-miterlimit="4" stroke-dasharray="none" stroke-opacity="1"/><path id="path1052-6-7-5" d="M36.16 58.64a15.8 15.8 0 01-1.035-.62" fill="none" fill-opacity=".969" stroke="#101010" stroke-width="1" stroke-linecap="square" stroke-miterlimit="4" stroke-dasharray="none" stroke-opacity="1"/><path id="path1052-6-7-5-3" d="M37.554 59.304a15.8 15.8 0 01-.008-.004" fill="none" fill-opacity=".969" stroke="#101010" stroke-width="1" stroke-linecap="square" stroke-miterlimit="4" stroke-dasharray="none" stroke-opacity="1"/><path id="path1052-6-7-5-3-5" d="M39.569 60.02a15.8 15.8 0 01-.533-.16" fill="none" fill-opacity=".969" stroke="#101010" stroke-width="1" stroke-linecap="square" stroke-miterlimit="4" stroke-dasharray="none" stroke-opacity="1"/><path id="path1052-6-2" d="M29.302 50.273a15.8 15.8 0 01-.931-8.064" fill="none" fill-opacity=".969" stroke="#101010" stroke-width=".5" stroke-linecap="square" stroke-miterlimit="4" stroke-dasharray="none" stroke-opacity="1"/><path id="path1052-3-9" d="M27.987 47.415a16.296 16.296 0 01-.013-.07" fill="none" fill-opacity=".969" stroke="#101010" stroke-width=".5" stroke-linecap="square" stroke-miterlimit="4" stroke-dasharray="none" stroke-opacity="1"/><path id="path1052-3-9-1" d="M27.848 46.563a16.296 16.296 0 01-.009-.067" fill="none" fill-opacity=".969" stroke="#101010" stroke-width=".5" stroke-linecap="square" stroke-miterlimit="4" stroke-dasharray="none" stroke-opacity="1"/><path id="path1052-3-9-1-2" d="M27.749 45.635a16.296 16.296 0 01-.003-.034" fill="none" fill-opacity=".969" stroke="#101010" stroke-width=".5" stroke-linecap="square" stroke-miterlimit="4" stroke-dasharray="none" stroke-opacity="1"/><path id="path1052-6-7-7" d="M25.892 47.138a18.315 18.315 0 01-.162-4.133" fill="none" fill-opacity=".969" stroke="#101010" stroke-width="1.315" stroke-linecap="square" stroke-miterlimit="4" stroke-dasharray="none" stroke-opacity="1"/><path id="path1052-6-7-7-0" d="M26.025 40.82a18.315 18.315 0 01.005-.023" fill="none" fill-opacity=".969" stroke="#101010" stroke-width="1.315" stroke-linecap="square" stroke-miterlimit="4" stroke-dasharray="none" stroke-opacity="1"/><path id="path1052-6-7-7-0-9-3" d="M29.383 33.316a18.315 18.315 0 011.217-1.448" fill="none" fill-opacity=".969" stroke="#101010" stroke-width="1.315" stroke-linecap="square" stroke-miterlimit="4" stroke-dasharray="none" stroke-opacity="1"/><path id="path1052-6-7-7-0-9-3-6" d="M31.915 30.593a18.315 18.315 0 01.214-.185" fill="none" fill-opacity=".969" stroke="#101010" stroke-width="1.315" stroke-linecap="square" stroke-miterlimit="4" stroke-dasharray="none" stroke-opacity="1"/><path id="path1052-6-7-7-0-9-3-6-0" d="M33.586 29.29a18.315 18.315 0 01.415-.279" fill="none" fill-opacity=".969" stroke="#101010" stroke-width="1.315" stroke-linecap="square" stroke-miterlimit="4" stroke-dasharray="none" stroke-opacity="1"/><path id="path1052-6-7-7-0-9-3-6-0-6" d="M35.796 27.982a18.315 18.315 0 012.627-1.07" fill="none" fill-opacity=".969" stroke="#101010" stroke-width="1.315" stroke-linecap="square" stroke-miterlimit="4" stroke-dasharray="none" stroke-opacity="1"/></g><path id="path1052-6-7-7-0-9" d="M26.591 38.655a18.315 18.315 0 01.013-.039" fill="none" fill-opacity=".969" stroke="#101010" stroke-width="1.315" stroke-linecap="square" stroke-miterlimit="4" stroke-dasharray="none" stroke-opacity="1"/><path id="path1052-6-7-5-6" d="M33.935 59.706a15.8 15.8 0 01-.924-.65" fill="none" fill-opacity=".969" stroke="#101010" stroke-width="1" stroke-linecap="square" stroke-miterlimit="4" stroke-dasharray="none" stroke-opacity="1"/></g></g></svg>