<?xml version="1.0" encoding="UTF-8" standalone="no"?>
<svg
   width="120"
   height="120"
   version="1.1"
   id="svg20"
   sodipodi:docname="LCTF.svg"
   inkscape:version="1.2.1 (9c6d41e410, 2022-07-14)"
   xmlns:inkscape="http://www.inkscape.org/namespaces/inkscape"
   xmlns:sodipodi="http://sodipodi.sourceforge.net/DTD/sodipodi-0.dtd"
   xmlns="http://www.w3.org/2000/svg"
   xmlns:svg="http://www.w3.org/2000/svg">
  <defs
     id="defs24" />
  <sodipodi:namedview
     id="namedview22"
     pagecolor="#505050"
     bordercolor="#ffffff"
     borderopacity="1"
     inkscape:showpageshadow="0"
     inkscape:pageopacity="0"
     inkscape:pagecheckerboard="1"
     inkscape:deskcolor="#505050"
     showgrid="false"
     inkscape:zoom="7.1916667"
     inkscape:cx="60.13905"
     inkscape:cy="60.13905"
     inkscape:window-width="1920"
     inkscape:window-height="1050"
     inkscape:window-x="0"
     inkscape:window-y="30"
     inkscape:window-maximized="1"
     inkscape:current-layer="svg20" />
  <path
     d="M47.857 88.206a33.6 33.6 0 01-26.384-23.269 33.6 33.6 0 018.834-34.051 33.6 33.6 0 0134.369-7.508"
     fill="none"
     stroke="#fff"
     stroke-width="2.4"
     paint-order="stroke fill markers"
     id="path2"
     style="stroke:#999999;stroke-opacity:1" />
  <path
     d="M24.763 66.476a31 31 0 01-1.69-16.763m6.213-13.843a31 31 0 015.572-5.462"
     fill="none"
     stroke="#fff"
     paint-order="stroke fill markers"
     id="path4"
     style="stroke:#999999;stroke-opacity:1" />
  <path
     d="M34.56 85.418a35.8 35.8 0 01-3.518-2.519M18.363 61.417a35.8 35.8 0 01-.308-10.575"
     fill="none"
     stroke="#fff"
     stroke-width="2.9"
     paint-order="stroke fill markers"
     id="path6"
     style="stroke:#999999;stroke-opacity:1" />
  <path
     d="M21.158 53.173a32.5 32.5 0 018.52-20.07M21.73 61.467a32.5 32.5 0 01-.2-1.107m-.308-2.462a32.5 32.5 0 01-.079-1.137m18.349-30.382a32 32 0 016.855-2.446M45.662 86.1a32 32 0 01-3.027-.937m-1.11-.429a32 32 0 01-1.89-.842m-.893-.451a32 32 0 01-3.708-2.278"
     fill="none"
     stroke="#fff"
     stroke-width="2.4"
     paint-order="stroke fill markers"
     id="path8"
     style="stroke:#999999;stroke-opacity:1" />
  <path
     d="M18.305 49.117a35.8 35.8 0 01.547-2.628m.417-1.513a35.8 35.8 0 01.865-2.571m4.196-7.917a35.8 35.8 0 013.912-4.656m.75-.732a35.8 35.8 0 012.341-2.03m.925-.711a35.8 35.8 0 012.907-1.946m1.168-.672a35.8 35.8 0 017.27-3.016"
     fill="none"
     stroke="#fff"
     stroke-width="2.9"
     paint-order="stroke fill markers"
     id="path10"
     style="stroke:#999999;stroke-opacity:1" />
  <path
     d="M21.427 59.689a32.5 32.5 0 01-.139-1.104"
     fill="none"
     stroke="#fff"
     stroke-width="2.4"
     paint-order="stroke fill markers"
     id="path12"
     style="stroke:#999999;stroke-opacity:1" />
  <path
     d="M37.833 40.846l2.47-2.272 1.457 2.84-2.248 2.074z"
     fill="#7f7f7f"
     stroke="#7f7f7f"
     id="path14" />
  <path
     d="M42.172 48.826L70.43 103.72l2.321-2.025L44.6 46.378z"
     fill="#7f7f7f"
     stroke="gray"
     id="path16" />
  <path
     d="M47.306 44.286L59.04 33.6l22.701 17.672 13.48-19.628 9.22 27.87-17.252 7.195-13.201-2.934-11.735 9.29z"
     fill="red"
     stroke="red"
     id="path18" />
</svg>
